/* XPM */
static char *result[] = {
/* columns rows colors chars-per-pixel */
"100 100 11 1 ",
"  c #293C42",
". c #394D63",
"X c #29616B",
"o c #7B4152",
"O c #C64D4A",
"+ c #42826B",
"@ c #FF8A7B",
"# c #529E94",
"$ c #84C3BD",
"% c #F7C3AD",
"& c #8ADDFE",
/* pixels */
"&&&&&&&&&&&&&&&&&&&&&&&&&&&&&&&&&&&&&&&&&&&&&&&&&&&&&&&&&&&&&&&&&&&&&&&&&&&&&&&&&&&&&&&&&&&&&&&&&&&&",
"&&&&&&&&&&&&&&&&&&&&&&&&&&&&&&&&&&&&&&&&&&&&&&&&&&&&&&&&&&&&&&&&&&&&&&&&&&&&&&&&&&&&&&&&&&&&&&&&&&&&",
"&&&&&&&&&&&&&&&&&&&&&&&&&&&&&&&&&&&&&&&&&&&&&&&&&&&&&&&&&&&&&&&&&&&&&&&&&&&&&&&&&&&&&&&&&&&&&&&&&&&&",
"&&&&&&&&&&&&&&&&&&&&&&&&&&&&&&&&&&&&&&&&&&&&&&&&&&&&&&&&&&&&&&&&&&&&&&&&&&&&&&&&&&&&&&&&&&&&&&&&&&&&",
"&&&&&&&&&&&&&&&&&&&&&&&&&&&&&&&&&&&&&&&&&&&&&&&&&&&&&&&&&&&&&&&&&&&&&&&&&&&&&&&&&&&&&&&&&&&&&&&&&&&&",
"&&&&&&&&&&&&&&&&&&&&&&&&&&&&&&&&&&&&&&&&&&&&&&&&&&&&&&&&&&&&&&&&&&&&&&&&&&&&&&&&&&&&&&&&&&&&&&&&&&&&",
"&&&&&&&&&&&&&&&&&&&&&&&&&&&&&&&&&&&&&&&&&&&&&&&&&&&&&&&&&&&&&&&&&&&&&&&&&&&&&&&&&&&&&&&&&&&&&&&&&&&&",
"&&&&&&&&&&&&&&&&&&&&&&&&&&&&&&&&&&&&&&&&&&&&&&&&&&&&&&&&&&&&&&&&&&&&&&&&&&&&&&&&&&&&&&&&&&&&&&&&&&&&",
"&&&&&&&&&&&&&&&&&&&&&&&&&&&&&&&&&&&&&&&&&&&&&&&&&&&&&&&&&&&&&&&&&&&&&&&&&&&&&&&&&&&&&&&&&&&&&&&&&&&&",
"&&&&&&&&&&&&&&&&&&&&&&&&&&&&&&&&&&&&&&&&&&&&&&&&&&&&&&&&&&&&&&&&&&&&&&&&&&&&&&&&&&&&&&&&&&&&&&&&&&&&",
"&&&&&&&&&&&&&&&&&&&&&&&&&&&&&&&&&&&&&&&&&&&&&&&&&&&&&&&&&&&&&&&&&&&&&&&&&&&&&&&&&&&&&&&&&&&&&&&&&&&&",
"&&&&&&&&&&&&&&&&&&&&&&&&&&&&&&&&&&&&&&&&&&&&&&&&&&&&&&&&&&&&&&&&&&&&&&&&&&&&&&&&&&&&&&&&&&&&&&&&&&&&",
"&&&&&&&&&&&&&&&&&&&&&&&&&&&&&&&&&&&&&&&&&&&&&&&&&&&&&&&&&&&&&&&&&&&&&&&&&&&&&&&&&&&&&&&&&&&&&&&&&&&&",
"&&&&&&&&&&&&&&&&&&&&&&&&&&&&&&&&&&&&&&&&&&&&&&&&&&&&&&&&&&&&&&&&&&&&&&&&&&&&&&&&&&&&&&&&&&&&&&&&&&&&",
"&&&&&&&&&&&&&&&&&&&&&&&&&&&&&&&&&&&&&&&&&&&&&&&&&&&&&&&&&&&&&&&&&&&&&&&&&&&&&&&&&&&&&&&&&&&&&&&&&&&&",
"&&&&&&&&&&&&&&&&&&&&&&&&&&&&&&&&&&&&&&&&&&&&&&&&&&&&&&&&&&&&&&&&&ooooooooo&&&&&&&&&&&&&&&&&&&&&&&&&&",
"&&&&&&&&&&&&&&&&&&&&&&&&&&&&&&&&&&&&&&&&&&&&&&&&&&&&&&&&&&&&&&&&&ooooooooo&&&&&&&&&&&&&&&&&&&&&&&&&&",
"&&&&&&&&&&&&&&&&&&&&&&&&&&&&&&&&&&&&&&&&&&&&&&&&&&&&&&&&&&&&&&&&&ooooooooo&&&&&&&&&&&&&&&&&&&&&&&&&&",
"&&&&&&&&&&&&&&&&&&&&&&&&&&&&&&&&&&&&&&&&&&&&&&&&&&&&&&&&&&&&&&ooo%%%%%%ooo&&&&&&&&&&&&&&&&&&&&&&&&&&",
"&&&&&&&&&&&&&&&&&&&&&&&&&&&&&&&&&&&&&&&&&&&&&&&&&&&&&&&&&&&&&&ooo%%%%%%ooo&&&&&&&&&&&&&&&&&&&&&&&&&&",
"&&&&&&&&&&&&&&&&&&&&&&&&&&&&&&&&&&&&&&&&&&&&&&&&&&&&&&&&&&&&&&ooo%%%%%%ooo&&&&&&&&&&&&&&&&&&&&&&&&&&",
"&&&&&&&&&&&&&&&&&&&&&&&&&&&&&&&&&&&&&&&&&&&&&&&&&&&&&&&&&&&ooo%%%@@@ooo&&&&&&&&&&&&&&&&&&&&&&&&&&&&&",
"&&&&&&&&&&&&&&&&&&&&&&&&&&&&&&&&&&&&&&&&&&&&&&&&&&&&&&&&&&&ooo%%%@@@ooo&&&&&&&&&&&&&&&&&&&&&&&&&&&&&",
"&&&&&&&&&&&&&&&&&&&&&&&&&&&&&&&&&&&&&&&&&&&&&&&&&&&&&&&&&&&ooo%%%@@@ooo&&&&&&&&&&&&&&&&&&&&&&&&&&&&&",
"&&&&&&&&&&&&&&&&&&&&&&&&&&&&&&&&&&&&&&oooooooooooo&&&&&&   @@@%%%OOO   .........&&&&&&&&&&&&&&&&&&&&",
"&&&&&&&&&&&&&&&&&&&&&&&&&&&&&&&&&&&&&&oooooooooooo&&&&&&   @@@%%%OOO   .........&&&&&&&&&&&&&&&&&&&&",
"&&&&&&&&&&&&&&&&&&&&&&&&&&&&&&&&&&&&&&oooooooooooo&&&&&&   @@@%%%OOO   .........&&&&&&&&&&&&&&&&&&&&",
"&&&&&&&&&&&&&&&&&&&&&&&&&&&&&&&&&&&ooo@@@%%%%%%%%%ooo   ooo%%%@@@      XXX++++++...&&&&&&&&&&&&&&&&&",
"&&&&&&&&&&&&&&&&&&&&&&&&&&&&&&&&&&&ooo@@@%%%%%%%%%ooo   ooo%%%@@@      XXX++++++...&&&&&&&&&&&&&&&&&",
"&&&&&&&&&&&&&&&&&&&&&&&&&&&&&&&&&&&ooo@@@%%%%%%%%%ooo   ooo%%%@@@      XXX++++++...&&&&&&&&&&&&&&&&&",
"&&&&&&&&&&&&&&&&&&&&&&&&&&&&&&&&&&&ooo      OOO@@@%%%OOOooo%%%OOOooo   oooooo      .........&&&&&&&&",
"&&&&&&&&&&&&&&&&&&&&&&&&&&&&&&&&&&&ooo      OOO@@@%%%OOOooo%%%OOOooo   oooooo      .........&&&&&&&&",
"&&&&&&&&&&&&&&&&&&&&&&&&&&&&&&&&&&&ooo      OOO@@@%%%OOOooo%%%OOOooo   oooooo      .........&&&&&&&&",
"&&&&&&&&&&&&&&&&&&&&&&&&&&&&&&&&&&&&&&&&&&&&   ooo@@@%%%%%%%%%oooOOO%%%%%%%%%oooooo###$$$###...&&&&&",
"&&&&&&&&&&&&&&&&&&&&&&&&&&&&&&&&&&&&&&&&&&&&   ooo@@@%%%%%%%%%oooOOO%%%%%%%%%oooooo###$$$###...&&&&&",
"&&&&&&&&&&&&&&&&&&&&&&&&&&&&&&&&&&&&&&&&&&&&   ooo@@@%%%%%%%%%oooOOO%%%%%%%%%oooooo###$$$###...&&&&&",
"&&&&&&&&&&&&&&&&&&&&&&&&&&&&&&&&&&&&&&&&&ooooooooooooOOO%%%@@@@@@%%%OOOoooooo@@@ooo$$$$$$$$$   &&&&&",
"&&&&&&&&&&&&&&&&&&&&&&&&&&&&&&&&&&&&&&&&&ooooooooooooOOO%%%@@@@@@%%%OOOoooooo@@@ooo$$$$$$$$$   &&&&&",
"&&&&&&&&&&&&&&&&&&&&&&&&&&&&&&&&&&&&&&&&&ooooooooooooOOO%%%@@@@@@%%%OOOoooooo@@@ooo$$$$$$$$$   &&&&&",
"&&&&&&&&&&&ooooooooo&&&&&&&&&&&&&&&&&&ooo@@@%%%%%%%%%@@@@@@@@@OOOOOOoooooo      ooo$$$###+++      &&",
"&&&&&&&&&&&ooooooooo&&&&&&&&&&&&&&&&&&ooo@@@%%%%%%%%%@@@@@@@@@OOOOOOoooooo      ooo$$$###+++      &&",
"&&&&&&&&&&&ooooooooo&&&&&&&&&&&&&&&&&&ooo@@@%%%%%%%%%@@@@@@@@@OOOOOOoooooo      ooo$$$###+++      &&",
"&&&&&&&&&&&ooo%%%%%%ooo&&&&&&&&&..................   oooOOOOOOOOOoooooo++++++######+++XXXXXX      &&",
"&&&&&&&&&&&ooo%%%%%%ooo&&&&&&&&&..................   oooOOOOOOOOOoooooo++++++######+++XXXXXX      &&",
"&&&&&&&&&&&ooo%%%%%%ooo&&&&&&&&&..................   oooOOOOOOOOOoooooo++++++######+++XXXXXX      &&",
"&&&&&&&&&&&&&&ooo@@@%%%ooo      XXX###$$$$$$$$$###++++++   oooOOO...   XXXXXX+++++++++XXX++++++   &&",
"&&&&&&&&&&&&&&ooo@@@%%%ooo      XXX###$$$$$$$$$###++++++   oooOOO...   XXXXXX+++++++++XXX++++++   &&",
"&&&&&&&&&&&&&&ooo@@@%%%ooo      XXX###$$$$$$$$$###++++++   oooOOO...   XXXXXX+++++++++XXX++++++   &&",
"&&&&&&&&ooooooooo   @@@%%%ooo   +++$$$$$$$$$###++++++XXXXXX            XXXXXX++++++XXXXXXXXX      &&",
"&&&&&&&&ooooooooo   @@@%%%ooo   +++$$$$$$$$$###++++++XXXXXX            XXXXXX++++++XXXXXXXXX      &&",
"&&&&&&&&ooooooooo   @@@%%%ooo   +++$$$$$$$$$###++++++XXXXXX            XXXXXX++++++XXXXXXXXX      &&",
"&&&&&&&&   OOOOOO   OOO%%%OOO   ######+++XXXXXXXXXXXX+++XXXXXX      XXX      oooooo         &&&&&&&&",
"&&&&&&&&   OOOOOO   OOO%%%OOO   ######+++XXXXXXXXXXXX+++XXXXXX      XXX      oooooo         &&&&&&&&",
"&&&&&&&&   OOOOOO   OOO%%%OOO   ######+++XXXXXXXXXXXX+++XXXXXX      XXX      oooooo         &&&&&&&&",
"&&&&&&&&&&&   oooOOO   @@@%%%OOO      oooooooooXXX+++XXX+++XXX         ooo@@@%%%%%%@@@oooooo&&&&&&&&",
"&&&&&&&&&&&   oooOOO   @@@%%%OOO      oooooooooXXX+++XXX+++XXX         ooo@@@%%%%%%@@@oooooo&&&&&&&&",
"&&&&&&&&&&&   oooOOO   @@@%%%OOO      oooooooooXXX+++XXX+++XXX         ooo@@@%%%%%%@@@oooooo&&&&&&&&",
"&&&&&&&&&&&&&&   ooo   OOO@@@OOOooo%%%%%%%%%OOOoooXXX+++   XXX      oooooooooOOOoooooo@@@   &&&&&&&&",
"&&&&&&&&&&&&&&   ooo   OOO@@@OOOooo%%%%%%%%%OOOoooXXX+++   XXX      oooooooooOOOoooooo@@@   &&&&&&&&",
"&&&&&&&&&&&&&&   ooo   OOO@@@OOOooo%%%%%%%%%OOOoooXXX+++   XXX      oooooooooOOOoooooo@@@   &&&&&&&&",
"&&&&&&&&&&&ooo%%%@@@@@@oooOOOooo%%%%%%OOOooo@@@      XXX+++++++++...      ooo@@@@@@ooo      &&&&&&&&",
"&&&&&&&&&&&ooo%%%@@@@@@oooOOOooo%%%%%%OOOooo@@@      XXX+++++++++...      ooo@@@@@@ooo      &&&&&&&&",
"&&&&&&&&&&&ooo%%%@@@@@@oooOOOooo%%%%%%OOOooo@@@      XXX+++++++++...      ooo@@@@@@ooo      &&&&&&&&",
"&&&&&&&&ooo%%%OOOoooOOO@@@OOO@@@%%%@@@ooo      ...+++$$$###$$$###+++...      oooOOOooo&&&&&&&&&&&&&&",
"&&&&&&&&ooo%%%OOOoooOOO@@@OOO@@@%%%@@@ooo      ...+++$$$###$$$###+++...      oooOOOooo&&&&&&&&&&&&&&",
"&&&&&&&&ooo%%%OOOoooOOO@@@OOO@@@%%%@@@ooo      ...+++$$$###$$$###+++...      oooOOOooo&&&&&&&&&&&&&&",
"&&&&&&&&      ooo@@@%%%%%%%%%%%%@@@OOOooo      #########$$$###$$$XXXXXXXXX            &&&&&&&&&&&&&&",
"&&&&&&&&      ooo@@@%%%%%%%%%%%%@@@OOOooo      #########$$$###$$$XXXXXXXXX            &&&&&&&&&&&&&&",
"&&&&&&&&      ooo@@@%%%%%%%%%%%%@@@OOOooo      #########$$$###$$$XXXXXXXXX            &&&&&&&&&&&&&&",
"&&&&&&&&&&&oooOOO%%%@@@OOOoooooo               +++######++++++XXXXXXXXXXXX   &&&&&&&&&&&&&&&&&&&&&&&",
"&&&&&&&&&&&oooOOO%%%@@@OOOoooooo               +++######++++++XXXXXXXXXXXX   &&&&&&&&&&&&&&&&&&&&&&&",
"&&&&&&&&&&&oooOOO%%%@@@OOOoooooo               +++######++++++XXXXXXXXXXXX   &&&&&&&&&&&&&&&&&&&&&&&",
"&&&&&&&&&&&ooo@@@OOO   XXX###$$$###+++XXX      XXXXXX++++++XXXXXXXXX+++XXX   &&&&&&&&&&&&&&&&&&&&&&&",
"&&&&&&&&&&&ooo@@@OOO   XXX###$$$###+++XXX      XXXXXX++++++XXXXXXXXX+++XXX   &&&&&&&&&&&&&&&&&&&&&&&",
"&&&&&&&&&&&ooo@@@OOO   XXX###$$$###+++XXX      XXXXXX++++++XXXXXXXXX+++XXX   &&&&&&&&&&&&&&&&&&&&&&&",
"&&&&&&&&&&&   @@@   ...+++$$$$$$$$$######XXX      +++++++++XXXXXX+++XXX...   &&&&&&&&&&&&&&&&&&&&&&&",
"&&&&&&&&&&&   @@@   ...+++$$$$$$$$$######XXX      +++++++++XXXXXX+++XXX...   &&&&&&&&&&&&&&&&&&&&&&&",
"&&&&&&&&&&&   @@@   ...+++$$$$$$$$$######XXX      +++++++++XXXXXX+++XXX...   &&&&&&&&&&&&&&&&&&&&&&&",
"&&&&&&&&&&&         XXX+++###$$$######++++++...   XXXXXXXXXXXX......      &&&&&&&&&&&&&&&&&&&&&&&&&&",
"&&&&&&&&&&&         XXX+++###$$$######++++++...   XXXXXXXXXXXX......      &&&&&&&&&&&&&&&&&&&&&&&&&&",
"&&&&&&&&&&&         XXX+++###$$$######++++++...   XXXXXXXXXXXX......      &&&&&&&&&&&&&&&&&&&&&&&&&&",
"&&&&&&&&&&&&&&&&&   XXXXXX++++++++++++++++++XXX&&&&&&&&&&&&&&&&&&&&&&&&&&&&&&&&&&&&&&&&&&&&&&&&&&&&&",
"&&&&&&&&&&&&&&&&&   XXXXXX++++++++++++++++++XXX&&&&&&&&&&&&&&&&&&&&&&&&&&&&&&&&&&&&&&&&&&&&&&&&&&&&&",
"&&&&&&&&&&&&&&&&&   XXXXXX++++++++++++++++++XXX&&&&&&&&&&&&&&&&&&&&&&&&&&&&&&&&&&&&&&&&&&&&&&&&&&&&&",
"&&&&&&&&&&&&&&&&&&&&   XXX++++++######XXXXXX...&&&&&&&&&&&&&&&&&&&&&&&&&&&&&&&&&&&&&&&&&&&&&&&&&&&&&",
"&&&&&&&&&&&&&&&&&&&&   XXX++++++######XXXXXX...&&&&&&&&&&&&&&&&&&&&&&&&&&&&&&&&&&&&&&&&&&&&&&&&&&&&&",
"&&&&&&&&&&&&&&&&&&&&   XXX++++++######XXXXXX...&&&&&&&&&&&&&&&&&&&&&&&&&&&&&&&&&&&&&&&&&&&&&&&&&&&&&",
"&&&&&&&&&&&&&&&&&&&&&&&      +++++++++......   &&&&&&&&&&&&&&&&&&&&&&&&&&&&&&&&&&&&&&&&&&&&&&&&&&&&&",
"&&&&&&&&&&&&&&&&&&&&&&&      +++++++++......   &&&&&&&&&&&&&&&&&&&&&&&&&&&&&&&&&&&&&&&&&&&&&&&&&&&&&",
"&&&&&&&&&&&&&&&&&&&&&&&      +++++++++......   &&&&&&&&&&&&&&&&&&&&&&&&&&&&&&&&&&&&&&&&&&&&&&&&&&&&&",
"&&&&&&&&&&&&&&&&&&&&&&&&&&   XXXXXXXXX...   &&&&&&&&&&&&&&&&&&&&&&&&&&&&&&&&&&&&&&&&&&&&&&&&&&&&&&&&",
"&&&&&&&&&&&&&&&&&&&&&&&&&&   XXXXXXXXX...   &&&&&&&&&&&&&&&&&&&&&&&&&&&&&&&&&&&&&&&&&&&&&&&&&&&&&&&&",
"&&&&&&&&&&&&&&&&&&&&&&&&&&   XXXXXXXXX...   &&&&&&&&&&&&&&&&&&&&&&&&&&&&&&&&&&&&&&&&&&&&&&&&&&&&&&&&",
"&&&&&&&&&&&&&&&&&&&&&&&&&&&&&&&&&&&&&&&&&&&&&&&&&&&&&&&&&&&&&&&&&&&&&&&&&&&&&&&&&&&&&&&&&&&&&&&&&&&&",
"&&&&&&&&&&&&&&&&&&&&&&&&&&&&&&&&&&&&&&&&&&&&&&&&&&&&&&&&&&&&&&&&&&&&&&&&&&&&&&&&&&&&&&&&&&&&&&&&&&&&",
"&&&&&&&&&&&&&&&&&&&&&&&&&&&&&&&&&&&&&&&&&&&&&&&&&&&&&&&&&&&&&&&&&&&&&&&&&&&&&&&&&&&&&&&&&&&&&&&&&&&&",
"&&&&&&&&&&&&&&&&&&&&&&&&&&&&&&&&&&&&&&&&&&&&&&&&&&&&&&&&&&&&&&&&&&&&&&&&&&&&&&&&&&&&&&&&&&&&&&&&&&&&",
"&&&&&&&&&&&&&&&&&&&&&&&&&&&&&&&&&&&&&&&&&&&&&&&&&&&&&&&&&&&&&&&&&&&&&&&&&&&&&&&&&&&&&&&&&&&&&&&&&&&&",
"&&&&&&&&&&&&&&&&&&&&&&&&&&&&&&&&&&&&&&&&&&&&&&&&&&&&&&&&&&&&&&&&&&&&&&&&&&&&&&&&&&&&&&&&&&&&&&&&&&&&",
"&&&&&&&&&&&&&&&&&&&&&&&&&&&&&&&&&&&&&&&&&&&&&&&&&&&&&&&&&&&&&&&&&&&&&&&&&&&&&&&&&&&&&&&&&&&&&&&&&&&&"
};
