/* XPM */
static char *result[] = {
/* columns rows colors chars-per-pixel */
"100 100 90 1 ",
"  c #000000",
". c #060608",
"X c #070808",
"o c #0C0C0C",
"O c #100E0F",
"+ c #0F0F10",
"@ c #110F10",
"# c #0F1011",
"$ c #131213",
"% c #191516",
"& c #1B1718",
"* c #1B1B1B",
"= c #201E1E",
"- c #1E1F20",
"; c #231F20",
": c #1F2021",
"> c #232423",
", c #282527",
"< c #272924",
"1 c #292A26",
"2 c #262729",
"3 c #292628",
"4 c #27282B",
"5 c #2C2C2C",
"6 c #2E302D",
"7 c #31332E",
"8 c #2B2E31",
"9 c #302E30",
"0 c #2C3134",
"q c #333333",
"w c #373834",
"e c #383936",
"r c #373638",
"t c #373839",
"y c #3C3D3D",
"u c #403F3F",
"i c #3E413E",
"p c #40413D",
"a c #393E42",
"s c #3D4445",
"d c #3E4349",
"f c #444444",
"g c #484745",
"h c #474847",
"j c #4A4A47",
"k c #40444A",
"l c #444A4A",
"z c #4C4C4C",
"x c #504F4D",
"c c #4D504E",
"v c #52514F",
"b c #494B56",
"n c #4E5151",
"m c #535353",
"M c #555759",
"N c #535959",
"B c #5B5B5B",
"V c #5E6161",
"C c #646565",
"Z c #666868",
"A c #6B6B6B",
"S c #6F7272",
"D c #747474",
"F c #7A7A7A",
"G c #D7363E",
"H c #FD3F49",
"J c #BC842C",
"K c #50AAD3",
"L c #5DC6F6",
"P c #5EC8F8",
"I c #848484",
"U c #8C8C8C",
"Y c #889797",
"T c #8E9C9C",
"R c #919191",
"E c gray60",
"W c #94A1A1",
"Q c #99A7A7",
"! c #A4AFAF",
"~ c #AEAEAE",
"^ c #B5B5B5",
"/ c #BDBDBD",
"( c #BEC0C0",
") c #8ADDFE",
"_ c gray76",
"` c #D3D3D3",
"' c gray85",
"] c gray90",
"[ c #EDEDED",
"{ c white",
/* pixels */
"))))))))))))))))))))))))))))))))   )   )))))))))))))))))))))))))))))))))))))))))))))))))))))))))))))",
"))))))))))))))))))))))))))))))))HHH)LPP)))))))))))))))))))))))))))))))))))))))))))))))))))))))))))))",
"))))))))))))))))))))))))))))))))GHH)KPP))) ;;;;;;;;;;;;;;;;;;;;;;;;;;;;;;;;;;;;;;;;;;;;;;;;;;; )))))",
"))))))))))))))))))))))))))))    MMM BMM                                                           ))",
")))))))))))))))))))))))))))                                                                       ))",
"))))))))))))))))))))))))))) DDDDDDDDDDDDDDDDDDDDDDDDDDDDDDDDDDDDDDDDDDDDDDDDDDDDDDDDDDDDDDDDDDDDDD )",
")))))))))))))))))))))))))))jAASSSAAASASAASAASAAASAAASAAASAASAASAASAASAAASAAASAAASAAAAASAAASASAASSA )",
")))))))))))))))))))))))))))AAZZZAAACAZAZCAAZAAAAAZAAAZAAAACAAAZACAAZAAAAAAACAAACAAACAAAAACAZAZZAAZ )",
")))))))))))))))))))))))))))BVBBB JJBBBVBBBBBBBVBBVBBBBVBBBBVBVBBBVVBVBVBBBVBBBBBBBBBBVBVBBBVBJJBBV )",
")))))))))))))))))))))))))))gMMBNmxxMMMMBBBmBMMMMMMMMBMMNMMMMMMBBMNMmMBMMBMMMMMBMMMBBMMMMBmMBMcvMMM )",
"))))))))))))))))))))))))))) vvnmvvmvmmnNmvvvnmnNvvmmvvmmvxvvvxxvmnnnvxmxvvvvmvmnvxxvnmnnmvvvmmnnvm )",
"))))))))))))))))))))))))))) >zzlzzzzlzldzzjzclldzzjcjjldxjzzzzzzclldxjzzzzzzzzllxzjxzcldzjjxlcldzx )",
")))))))))))))))))))))))))))) yytyytitsitytstitityytititststyyytys0sitsstyytyyytsyysttstiyystittiyy )",
")))))))))))))))))))))))))))) yyyatsttttsyytitstiyytysts0ityyyytytiitittiyyyyyaityttyitsttytitsstyy )",
"))))))))))))))))))))))))))))s ytyyyiststyXitit#tstNytitstss yaayXitstssts1tyt +tyyyatitiytyttiti y )",
"))))))))))))))))))))))))))))s yytayttitiyttstisstitystitittittyystitittittstyyyytaytststyytsststyy )",
"))))))))))))))))))))))))))))s zhzzzzzzzzzmzmmmmmnfmmxmvvmbbvxzxzbxzzjzzghgggkffffafuuuauauuppyyyyy )",
"))))))))))))))))))))))))))))s zjzzzxxzmzzzzzzzjcckmnmmvvxmvxzmznzzzzzzhhhgkggfffffupuupupuuauysyyt )",
"))))))))))))))))))))))))))))s zzzzzbnzm          fmmvmmmmvmmvcxbzzzzzhzzzggghffffufaapayuuuuuayyti )",
"))))))))))))))))))))))))))))Y zzzzzxzm qqqqqqqqqqfmmmmmvm3BNBBBBBNMBjzhhfmkffffmmmnmmmNnmmuuuuayst )",
"))))))))))))))))))))))))))))Y zzzzzxzmqqqqqq0qq0qhmmmmmmn4VSSDBSDMNNzhzh9u hggfMCAnnnMCZAnsuyuuyyy )",
"))))))))))))))))))))))))))  Y zzzxzzvzqq*****$:wqhMmmmmmm4VVZABVZBBNzzzguuqgggfMVCMnnnBVCnuauuuyyy )",
"))))))))))))))))))))))))))E Y zzzzmzzmq4N{{{{{NwqgmmmMmmm1BVVZBNVNBMzzzzuuqhkdfMNBnnnNmNBnuufyyyti )",
"))))))))))))))))))))))))))E Y zzzzzmcsq2nNNnNN{0qzMmmmmmn1BBVVNBBMMBzzzhqa hggfmMnMmnMnnmmuuypay*t )",
"))))))))))))))))))))))))))E Y zzvzvzv qNNNNNNN(0wgmvmmmmN4BBVBBNBMBMxzzzy9dggfgmnmnmnnmnmmyuuyiyts )",
"))))))))))))))))))))))))) E Y zzxbzvpqNNNNNNNNN07jBBBmBmMmmmvmmcnnbxzzzhzzgggkgffkfffyusaufyyfyyst )",
"))))))))))))))))))))))))) E Y zzvvcb rNNNNNNNdN07jBvmBmmMmmmxmnvvvxbxzzzzgzgggfffffpafyuuuuyuuuyyy )",
"))))))))))))))))))))))))) E Y zzzzxmrrNNNNNNNNNsqjmBmmBmmmmmmmnmX xzzzzzzhhggkfkffspZ*uuyuuuyuayyy )",
"))))))))))))))))))))))))) E Y zmznzsq*NNNNNNNNMqqjMBmBmmmMMmmmzmffxxzzzzzhgzggkgfff uBuuuuufauyyty )",
"))))))))))))))))))))))))) E Y zzvzx wnNNNNNNNNMqqzBmmBmBMmmmmmbmuuznzzzzkzggghfgfffquuuyupuaupayst )",
"))))))))))))))))))))))))  E Y zzbvnwtNNNNNNNNNmrujMBBmBmMmmmmmvvuufxzbzzzhhhhfggfffrufuuuapauupytt )",
"))))))))))))))))))))))))  E T zzvxctNNNdllllllfu9jMMmBMMmBmmmmmmqqxbnxzzzzhhhgfffff*yquauuuuuuayoi )",
"))))))))))))))))))))))))  E W zxzm*yflll;auyyyyrrzMBMBmmBmmmmmvvzubvnxzzzhhhffzfffff.quuuauuauayyy )",
")))))))))))))))))))))))) )E Q zzvz rlll-uafuuyurrzBBBmBBBBmBBmvBmmvmvnnnxxxbxbzzzzfzzffgghgggghtyy )",
")))))))))))))))))))))))) )E ! zmzm ylllpuffuuyyerzuuuuuuuuuuuuuuuuuuuuuuyuuuyuuyuyyuuufypuuyuuuyts )",
")))))))))))))))))))))))) )E ! czmz yllyffufuuuyyexBMBBBmvmBmmMmvvvvxbxxzzzgzzgfzufffuuuuauuuauuyit )",
")))))))))))))))) ))))))) )   vzzxx yyaff{{{fffuyyxBBBBBBBmMmMMvvvvnbzzxzzzbfzfffffffuuuuafuupysyts )",
"))))))))))))))) q))))))) )) zzzvvm ypffffhfffuuuyzBBBMmBmBBmmmmmmmvnnxzzzgggzgfffffffuauuuyuuyyyit )",
"))))))))))))))) q))))))) ))zzzzxbv yuu``fhf``uuaezBBBBBBBmBvMmmvvvvnbxxzzzhzffzzfffduuuuuuuuuayyyy )",
"))))))))))))))) q))))))) ))zzvbczv yuu{fh{hf{uuuyxBBBMBMBBBMmmmmvxbnxxxzzghhzfffffffuduuupauuuayyy )",
"))))))))))))))) y))))))) ) DFzvzvm yuf{hh{hh{uuauxBBBBBBmBmmmmmvvvvvnbbzzzzgkgfffgfukuuuauuuuuuy#i )",
"))))))))))))))) q)))))))   Azzzzzm uuf{h{{{h{dfuuxCBBBBBBMBMBmmmmmvbxxzzzzgzzggfffffuuuuuuauupuy*t )",
"))))))))))))))) q ))   F zqrzvbvzm yukgzh{hhgguuujBBBBB[[~mm[[m[[b[[xxxz[zgkg[[[[_fufuuaauuuuayyti )",
")))))))))))))  y 5   DDj z5qzzvzmx fufghz{zzkgguuxBBBB[[[[Bm[[m[[v[[vnz[[zzzg[[[[_ffuuuufuuuuyiyst )",
"))))))))))))  555q DDkgg z5yzzxzbv yffhh{h{hgguuuxBBBB[[B[Bm_[m[[v[[bxz[[[kgk[[[[(fuuuuuuyuuuuayyy )",
"))))))))))  595q DDDgggz gqqzvbxvv uffhAhzzhgffuugVBBB[BmBmBm[m[[v[[xxz['[zggzg[fffufduuuupauaiyyy )",
"))))))))) 5555 XDDfffkgh z7rzzxxcb pufg{zzh{gfuuuvBBBB[[BBmmm[m[[v[[xxz[z[zgkgk[ffffuuuuuuuuuuuyti )",
")))))))) y  AD  uffffghh z9ezxbxvv uuffhh{hggdfauvBBBBB[[`BmB[`[[v[vvbb[z[gzggg[fffffuuaauuuuuayst )",
")))))))   SSAufufffkgghh z8rzvbzxx auuggkzhgffuuuzBBBBBM[[mBv[[B[^[vvbx[z[ghggg[fffufuuuuuuuuyyytt.)",
")))))   SSAuuuuuufugfkgh z9rzzxxvm uuudgggghffuuuzBBBBBM^[Bmm[[mm['bxxz[[[zhgzg[ffffuuuuuuauufyy i )",
")))   SASuuyuuufugfffggh h9rzzzxbv yukkfgghffuuyuxBBBBBBB[BMM[[mv[nnxx/[[[hhgkf[fffufauuuauuyuayyy )",
"))) ;ASuuuuuuu uffukggkh hqezxzxxv yuuugfgfffuuyuzBBBB[[[[M[mm[mv[xn[D[zzz~[[gf[gf[ffuuuufpauuytyy )",
")) ADAuuuuuuau ffffgfgghuz9rzxxbxm yyuugdfffuuuyrzBBBB[[[]M[Bm[vv[nn[[[zzz[[[kf[fh[uuuuuyuuuuuuyty )",
")) yyyuryyyuyy yuuuufffffg8rgzhzzz yyuuuufuuuuyyrgmMmmmmmvmvxxvvxxzzzzzhgfggffffuuuayuyryyyyeyyyst )",
")) yyyyuruyryyquuuufuffffg8qhzhzzz yruuuuduuuyyyrgMmMmmmmmmmvvvxxzzzzgzghgkgfffuuffayyryeuyyyyytts )",
")) yyyyeyyyyyyquauuuufffgh5qhhzzzz ryuauuuuuuyyerzmMmmBvmmvvbvvxbzzzzzzhzgfffffffuuuuuuyyyyryyytit )",
")) uyyyyruuyyyquyuuuffffgg9qhhzzzz yyeyyyuyuyyrrrhmmmmmmmvxvxbvvvzzzzzhhhhggfffuuuuauuyyyyyeyyyyyy )",
"))=yeyryyyruruquuuuufffffg5qbbbbbb qryyyyyyyyyyqrhmmmmmvmmbzvvxbzzzzzhhhhhfffffufuuyyyyyyyyyuryyyy )",
"))yeeryyeereyerryyyyyyuusu5q{{{{{{ {{{{{{{{{{{{{{`{{{{{{{{{{{{{{{{{{{{{{{{{{{{{{{{{{{{{{{{{{{{{{{{ )",
"))wrrrqyqrerqrqrreeyyyyy*$45{{{{{{ {{{{{{{{{{{{{{'{{{{{{{{{{{{{{{{{{{{{{{{{{{{{{{{{{{{{{{{{{{{{{{{ )",
"))qqqqqqqeqqrw ryrreryeyyy,5{{{{{{ {{{{{{{{{{{{{{`{{{{{{{{{{{{{{{{{{{{{{{{{{{{{{{{{{{{{{{{{{{{{{{{ )",
"))qqqqqqqqqqqqqqqqqrrrrery34{{{{{{ {{{{{{{{{{{{{{`{{{{{{{{{{{{{{{{{{{{{{{{{{{{{{{{{{{{{{{{{{{{{{{{ )",
"))qqqqqqqqqqq779qqqqqwrrry>1{{{{{{ {{{{{{{{{{{{{{`{{{{{{{{{{{{{{{{{{{{{{{{{{{{{{{{{{{{{{{{{{{{{{{{ )",
"))99q5596959599997qqqqqqqq>1{{{{{{ {{{{{{{{{{{{{{`{{{{{{{{{{{{{{{{{{{{{{{{{{{{{{{{{{{{{{{{{{{{{{{{ )",
"))5476qqq6qqq9qy;>>-*>>5q9>>qqqqqq qqqqqqqqqqqqqqqyyryrryyqyrqrrqrqqqqqqqq9 >>-=>=>->&454554555yty )",
"))4<qqq5700797y*>**>>:- 55*>7q9qqq qqqqqqqqqqqqqq9rerwrwqqqrqqqqqqqqqqq9795 *>>-->>=:*414114144tyy )",
"))1,>*;::-::>***%****&=*55*>5559q5 RRRRRRRRRRRRRR5qqqqqqqqqqqqqq775qq55555X***%*%*%*** ,13,<2<1y y )",
")),,*****&****%%%%$$@+ * 4*>555555oIIIIIIIIIIIIII47qqq97qq95q7559555555554 % %%%%%$$o**,>,>,>,<tyy )",
"))<>&  ****&* %%%%%%%@@**5*-5545556FDFDFFFDFDFFD 45qq79q5q6q6q559555555545**O%%%%%$$@ * >2>>><2yts )",
"))>4&&%*&*&& $%%-444%%& ***-5555955 xbzzzzxzzzz q4qqq999q5q5959q595545555 *X%%%2442$@o&* ><,,>:yyt )",
"))>>******** $%444>>4@&$&**=155555559559q9q8q97873q9q5799q79655555555554>* %%24>>>24@o ** >24>>ayy )",
"))>:*&***** @$>44424>4&& * =545555555775575qq95q635q6q5qq957985q55555551 * %%>24444>2oo***><>>>yyy )",
") ,>*****&. @$342-->444%$***55555555575959909870q1q55qq5q5575q5596555514***%>44>-:>442o **>,>>,yts )",
")tq* *&*&& o@>4>*>,*244o$ *=45455555555556967796549qq55q5q9555555555554$o %*>,>*2>*244X.&%<>>4:yit )",
")rt09,*   oo$>2*sxvx5044$o*=1555555,>>>>>>,>,,,,q3789q9797895q555555555 o %14--gmxx582X. o>>>>>iyy )",
") q93>;&%%o+245vvffvvgf2>@* 54154557979q7qq5q59751999759559565565555554oo%3q-vvvffmzfy>..o ,22:yyy )",
") 953>=%%%o$>>vvqyy&vvz2,$* 4535515*---=**;*==*=54q58750575655555555151oO%44-vv5yr*vvj,.X  >>4>iyt.)",
") 953;=&% X,2-xg kdMpvvy>O**5115555555555790569591575965856585555555415@o%>:wvebkkMjvm>2X %><>:yty )",
") 95,;&%% $>,*m>kkd45vmn<#**5445555555595559595651555555965595555555541o %,-vq5kkkd>vv,>. o<>>>syy )",
")q53,;&&%.>,>yzkkddddfmn>> &3351545555555575699654$@$O$$@@$@@@$+o@@+++$o %>-v0kkkkkkzm5>..+>###&**  ",
" q53>**%%X>>:z dklbdd mv>> * 514545555665 9559B99>EEEEEEEEEEEEEEEEEEEE o$%><vdddjldd vf>XXo+EEEEEEE3",
" 93>;*%% )>;:md>l-->>lyfq>)& 445155oXXXXOXoooXoX63UUUUUUUUUUUUUUUUUUUU o%>:zv6>c--:,sjc>XXo EERRRUU;",
" 93>;**%))>>,vsd><<:dkiif>)**115535yuyyyyuyyyyyy53FFFFFFFFFFFFFFFFFFFF *%>>vcld:<<cdspn>#.o*IIFFFDD*",
" 53;=&  ))>>5vkk:ww0ksywj>)&*51415455535355155555>AZZZAAAAZZZZAAAZZZAA  %>4vcdd6ee:dsim>$Xo+SAAAZZZ*",
"      ))))>>qmdk:mnidd 6g>)                                             );6v*kklvv<ddin>*)        ))",
"))))))))))>;wvdd:mn0dli6g>))          )))))))))))))))))))))))))))))))))))>qvvkk>vv1ds0n>o)        ))",
"))))))))))>>fvsdd:<4dsi6q>)))))))))))))))))))))))))))))))))))))))))))))))>6vvkdl:4:ds<c>.)))))))))))",
"))))))))))>;hv dl::dd 1l>>)))))))))))))))))))))))))))))))))))))))))))))))*<nvkkd::dd <c:))))))))))))",
"))))))))))>;iv lkkddl <c>=))))))))))))))))))))))))))))))))))))))))))))))))>mv0ddkdld <e>))))))))))))",
"))))))))))*><cv0kkk10<<m>>))))))))))))))))))))))))))))))))))))))))))))))))>cci0kkdd0<<<>))))))))))))",
")))))))))));>vvi0dd6y><j;X))))))))))))))))))))))))))))))))))))))))))))))))>cvji0kk6w<e>;))))))))))))",
")))))))))))=>cjg sas<<1<>)))))))))))))))))))))))))))))))))))))))))))))))))>1vgpiaas<1c>+))))))))))))",
"))))))))))))>;veq<<<<cm>#))))))))))))))))))))))))))))))))))))))))))))))))):>ipw6<<<<n5>)))))))))))))",
"))))))))))))*>cc5<<<hn6>)))))))))))))))))))))))))))))))))))))))))))))))))));;nh6<<<zj>+)))))))))))))",
")))))))))))));>cc61ic<;<)))))))))))))))))))))))))))))))))))))))))))))))))));;hnj56fn>>))))))))))))))",
")))))))))))))*><ccmn<>>)))))))))))))))))))))))))))))))))))))))))))))))))))))>>1cmnn<>>))))))))))))))",
"))))))))))))))>>>qw<>>;)))))))))))))))))))))))))))))))))))))))))))))))))))))*>>>qw<>;o))))))))))))))",
")))))))))))))))=;;>>%))))))))))))))))))))))))))))))))))))))))))))))))))))))))&*;>>>$))))))))))))))))",
")))))))))))))))))*=%))))))))))))))))))))))))))))))))))))))))))))))))))))))))))))**%)))))))))))))))))",
"))))))))))))))))))))))))))))))))))))))))))))))))))))))))))))))))))))))))))))))))))))))))))))))))))))"
};
