/* XPM */
static char *result[] = {
/* columns rows colors chars-per-pixel */
"100 100 12 1 ",
"  c #0D080D",
". c #2A2349",
"X c #7D3840",
"o c #32535F",
"O c #C16C5B",
"+ c #7BB24E",
"@ c #E89973",
"# c #F0BD77",
"$ c #4180A0",
"% c #74ADBB",
"& c #8ADDFE",
"* c #FFF9E4",
/* pixels */
"&&&&&&&&&&&&&&&&&&&&&&&&&&&&&&&&&&&&&&&&&&&&&&&&&&&&&&&&&&&&&&&&&&&&&&&&&&&&&&&&&&&&&&&&&&&&&&&&&&&&",
"&&&&&&&&&&&&&&&&&&&&&&&&&&&&&&&&&&&&&&&&&&&&&&&&&&&&&&&&&&&&&&&&&&&&&&&&&&&&&&&&&&&&&&&&&&&&&&&&&&&&",
"&&&&&&&&&&&&&&&&&&&&&&&&&&&&&&&&&&&&&&&&&&&&&&&&&&&&&&&&&&&&&&&&&&&&&&&&&&&&&&&&&&&&&&&&&&&&&&&&&&&&",
"&&&&&&&&&&&&&&&&&&&&&&&&&&&&&&&&&&&&&&&&XXXXXXXXXXXXXXXXXXXX&&&&&&&&&&&&&&&&&&&&&&&&&&&&&&&&&&&&&&&&",
"&&&&&&&&&&&&&&&&&&&&&&&&&&&&&&&&&&&&&&&&XXXXXXXXXXXXXXXXXXXX&&&&&&&&&&&&&&&&&&&&&&&&&&&&&&&&&&&&&&&&",
"&&&&&&&&&&&&&&&&&&&&&&&&&&&&&&&&&&&XXXXXOO@@@##########@@OOOXXXXX&&&&&&&&&&&&&&&&&&&&&&&&&&&&&&&&&&&",
"&&&&&&&&&&&&&&&&&&&&&&&&&&&&&&&&&&&XXXXXOO@@@##########@@OOOXXXXX&&&&&&&&&&&&&&&&&&&&&&&&&&&&&&&&&&&",
"&&&&&&&&&&&&&&&&&&&&&&&&&&&&&&&&&&&XXXXXOO@@@##########@@OOOXXXXX&&&&&&&&&&&&&&&&&&&&&&&&&&&&&&&&&&&",
"&&&&&&&&&&&&&&&&&&&&&&&&&&&&&&&&XXXOO@@@####################@@OOOXX&&&&&&&&&&&&&&&&&&&&&&&&&&&&&&&&&",
"&&&&&&&&&&&&&&&&&&&&&&&&&&&&&&&&XXXOO@@@####################@@OOOXX&&&&&&&&&&&&&&&&&&&&&&&&&&&&&&&&&",
"&&&&&&&&&&&&&&&&&&&&&&&&&&&&&&XX@@@##############################@@XXX&&&&&&&&&&&&&&&&&&&&&&&&&&&&&&",
"&&&&&&&&&&&&&&&&&&&&&&&&&&&&&&XX@@@##############################@@XXX&&&&&&&&&&&&&&&&&&&&&&&&&&&&&&",
"&&&&&&&&&&&&&&&&&&&&&&&&&&&&&&XX@@@##############################@@XXX&&&&&&&&&&&&&&&&&&&&&&&&&&&&&&",
"&&&&&&&&&&&&&&&&&&&&&&&&&&&XXX@@###################################@@@XX&&&&&&&&&&&&&&&&&&&&&&&&&&&&",
"&&&&&&&&&&&&&&&&&&&&&&&&&&&XXX@@###################################@@@XX&&&&&&&&&&&&&&&&&&&&&&&&&&&&",
"&&&&&&&&&&&&&&&&&&&&&&&&&XXOOO########################################OOXXX&&&&&&&&&&&&&&&&&&&&&&&&&",
"&&&&&&&&&&&&&&&&&&&&&&&&&XXOOO########################################OOXXX&&&&&&&&&&&&&&&&&&&&&&&&&",
"&&&&&&&&&&&&&&&&&&&&&&&&&XXOOO########################################OOXXX&&&&&&&&&&&&&&&&&&&&&&&&&",
"&&&&&&&&&&&&&&&&&&&&&&&&&XX@@@########################################@@XXX&&&&&&&&&&&&&&&&&&&&&&&&&",
"&&&&&&&&&&&&&&&&&&&&&&&&&XX@@@########################################@@XXX&&&&&&&&&&&&&&&&&&&&&&&&&",
"&&&&&&&&&&&&&&&&&&&&&&XXXOO#############################################OOOXX&&&&&&&&&&&&&&&&&&&&&&&",
"&&&&&&&&&&&&&&&&&&&&&&XXXOO#############################################OOOXX&&&&&&&&&&&&&&&&&&&&&&&",
"&&&&&&&&&&&&&&&&&&&&&&XXXOO#############################################OOOXX&&&&&&&&&&&&&&&&&&&&&&&",
"&&&&&&&&&&&&&&&&&&&&&&XXX@@#############################################@@@XX&&&&&&&&&&&&&&&&&&&&&&&",
"&&&&&&&&&&&&&&&&&&&&&&XXX@@#############################################@@@XX&&&&&&&&&&&&&&&&&&&&&&&",
"&&&&&&&&&&&&&&&&&&&&&&XXX@@#############################################@@@XX&&&&&&&&&&&&&&&&&&&&&&&",
"&&&&&&&&&&&&&&&&&&&&&&XXX@@#############################################@@@XX&&&&&&&&&&&&&&&&&&&&&&&",
"&&&&&&&&&&&&&&&&&&&&&&XXX@@#############################################@@@XX&&&&&&&&&&&&&&&&&&&&&&&",
"&&&&&&&&&&&&&&&&&&&&&&OOO############OOOXXXXX##########XXXXXOO#############OO&&&&&&&&&&&&&&&&&&&&&&&",
"&&&&&&&&&&&&&&&&&&&&&&OOO############OOOXXXXX##########XXXXXOO#############OO&&&&&&&&&&&&&&&&&&&&&&&",
"&&&&&&&&&&&&&&&&&&&&&&OOO##########@@@@@@@@@@##########@@@@@@@@@@##########OO&&&&&&&&&&&&&&&&&&&&&&&",
"&&&&&&&&&&&&&&&&&&&&&&OOO##########@@@@@@@@@@##########@@@@@@@@@@##########OO&&&&&&&&&&&&&&&&&&&&&&&",
"&&&&&&&&&&&&&&&&&&&&&&OOO##########@@@@@@@@@@##########@@@@@@@@@@##########OO&&&&&&&&&&&&&&&&&&&&&&&",
"&&&&&&&&&&&&&&&&&&&&&&OOO#######@@@@@@@@OOOOO##########OOOOO@@@@@@@########OO&&&&&&&&&&&&&&&&&&&&&&&",
"&&&&&&&&&&&&&&&&&&&&&&OOO#######@@@@@@@@OOOOO##########OOOOO@@@@@@@########OO&&&&&&&&&&&&&&&&&&&&&&&",
"&&&&&&&&&&&&&&&&&&&&&&OOO#####@@OOO..     ...##########..     ...OO@@@#####OO&&&&&&&&&&&&&&&&&&&&&&&",
"&&&&&&&&&&&&&&&&&&&&&&OOO#####@@OOO..     ...##########..     ...OO@@@#####OO&&&&&&&&&&&&&&&&&&&&&&&",
"&&&&&&&&&&&&&&&&&&&&&&OOO#####@@OOO..     ...##########..     ...OO@@@#####OO&&&&&&&&&&&&&&&&&&&&&&&",
"&&&&&&&&&&&&&&&&&&&&&&XXX@@###OOooo  ooo$$ooo##########oo$$$oo   ooOOO##@@@XX&&&&&&&&&&&&&&&&&&&&&&&",
"&&&&&&&&&&&&&&&&&&&&&&XXX@@###OOooo  ooo$$ooo##########oo$$$oo   ooOOO##@@@XX&&&&&&&&&&&&&&&&&&&&&&&",
"&&&&&&&&&&&&&&&&&&&&XXXXX@@###@@@@@**$$$**$$$##########$$***$$***@@@@@##@@@XXXXX&&&&&&&&&&&&&&&&&&&&",
"&&&&&&&&&&&&&&&&&&&&XXXXX@@###@@@@@**$$$**$$$##########$$***$$***@@@@@##@@@XXXXX&&&&&&&&&&&&&&&&&&&&",
"&&&&&&&&&&&&&&&&&&&&XXXXX@@###@@@@@**$$$**$$$##########$$***$$***@@@@@##@@@XXXXX&&&&&&&&&&&&&&&&&&&&",
"&&&&&&&&&&&&&&&&&OOO@@@@@XX#####@@@**$$$%%$$$##@@@@@###$$%%%$$***@@#####XXX@@@@@OO&&&&&&&&&&&&&&&&&&",
"&&&&&&&&&&&&&&&&&OOO@@@@@XX#####@@@**$$$%%$$$##@@@@@###$$%%%$$***@@#####XXX@@@@@OO&&&&&&&&&&&&&&&&&&",
"&&&&&&&&&&&&&&&&&OOO@@@@@#####@@@@@**$$$++$$$##OOOOO###$$+++$$***@@@@@#####@@@@@OO&&&&&&&&&&&&&&&&&&",
"&&&&&&&&&&&&&&&&&OOO@@@@@#####@@@@@**$$$++$$$##OOOOO###$$+++$$***@@@@@#####@@@@@OO&&&&&&&&&&&&&&&&&&",
"&&&&&&&&&&&&&&&&&OOO@@@@@#####@@@@@**$$$++$$$##OOOOO###$$+++$$***@@@@@#####@@@@@OO&&&&&&&&&&&&&&&&&&",
"&&&&&&&&&&&&&&&&&&&&OO###@@@@@@@@@@@@***..***OOOOOOOOOO**...**@@@@@@@@@@@@@##OOO&&&&&&&&&&&&&&&&&&&&",
"&&&&&&&&&&&&&&&&&&&&OO###@@@@@@@@@@@@***..***OOOOOOOOOO**...**@@@@@@@@@@@@@##OOO&&&&&&&&&&&&&&&&&&&&",
"&&&&&&&&&&&&&&&&&&&&&&OOOOOOOO@@@@@@@@@@####################@@@@@@@@@@OOOOOOO&&&&&&&&&&&&&&&&&&&&&&&",
"&&&&&&&&&&&&&&&&&&&&&&OOOOOOOO@@@@@@@@@@####################@@@@@@@@@@OOOOOOO&&&&&&&&&&&&&&&&&&&&&&&",
"&&&&&&&&&&&&&&&&&&&&&&OOOOOOOO@@@@@@@@@@####################@@@@@@@@@@OOOOOOO&&&&&&&&&&&&&&&&&&&&&&&",
"&&&&&&&&&&&&&&&&&&&&&&&&&&&&&&OOOOO@@@@@#######@@@@@########@@@@@OOOOO&&&&&&&&&&&&&&&&&&&&&&&&&&&&&&",
"&&&&&&&&&&&&&&&&&&&&&&&&&&&&&&OOOOO@@@@@#######@@@@@########@@@@@OOOOO&&&&&&&&&&&&&&&&&&&&&&&&&&&&&&",
"&&&&&&&&&&&&&&&&&&&&&&&&&&&&&&&&&&&OOOOO####################OOOOO&&&&&&&&&&&&&&&&&&&&&&&&&&&&&&&&&&&",
"&&&&&&&&&&&&&&&&&&&&&&&&&&&&&&&&&&&OOOOO####################OOOOO&&&&&&&&&&&&&&&&&&&&&&&&&&&&&&&&&&&",
"&&&&&&&&&&&&&&&&&&&&&&&&&&&&&&&&&&&OOOOO####################OOOOO&&&&&&&&&&&&&&&&&&&&&&&&&&&&&&&&&&&",
"&&&&&&&&&&&&&&&&&&&&&&&&&&&&&&&&&&&&&&&&XXXXXOOOOOOOOOOXXXXX&&&&&&&&&&&&&&&&&&&&&&&&&&&&&&&&&&&&&&&&",
"&&&&&&&&&&&&&&&&&&&&&&&&&&&&&&&&&&&&&&&&XXXXXOOOOOOOOOOXXXXX&&&&&&&&&&&&&&&&&&&&&&&&&&&&&&&&&&&&&&&&",
"&&&&&&&&&&&&&&&&&&&&&&&&&&&&&&&&&&&&&XXX@@@@@@@@@@@@@@@@@@@@XX&&&&&&&&&&&&&&&&&&&&&&&&&&&&&&&&&&&&&&",
"&&&&&&&&&&&&&&&&&&&&&&&&&&&&&&&&&&&&&XXX@@@@@@@@@@@@@@@@@@@@XX&&&&&&&&&&&&&&&&&&&&&&&&&&&&&&&&&&&&&&",
"&&&&&&&&&&&&&&&&&&&&&&&&&&&&&&&&&&&&&XXX@@@@@@@@@@@@@@@@@@@@XX&&&&&&&&&&&&&&&&&&&&&&&&&&&&&&&&&&&&&&",
"&&&&&&&&&&&&&&&&&&&&&&&&&&&&&&&&&&&XX@@@#####@@@@@@@@@@#####@@XXX&&&&&&&&&&&&&&&&&&&&&&&&&&&&&&&&&&&",
"&&&&&&&&&&&&&&&&&&&&&&&&&&&&&&&&&&&XX@@@#####@@@@@@@@@@#####@@XXX&&&&&&&&&&&&&&&&&&&&&&&&&&&&&&&&&&&",
"&&&&&&&&&&&&&&&&&&&&&&&&&&&&&&&&OOO##############################OO&&&&&&&&&&&&&&&&&&&&&&&&&&&&&&&&&",
"&&&&&&&&&&&&&&&&&&&&&&&&&&&&&&&&OOO##############################OO&&&&&&&&&&&&&&&&&&&&&&&&&&&&&&&&&",
"&&&&&&&&&&&&&&&&&&&&&&&&&&&&&&&&OOO##############################OO&&&&&&&&&&&&&&&&&&&&&&&&&&&&&&&&&",
"&&&&&&&&&&&&&&&&&&&&&&&&&&&&&&OO########@@###############@@@#######OOO&&&&&&&&&&&&&&&&&&&&&&&&&&&&&&",
"&&&&&&&&&&&&&&&&&&&&&&&&&&&&&&OO########@@###############@@@#######OOO&&&&&&&&&&&&&&&&&&&&&&&&&&&&&&",
"&&&&&&&&&&&&&&&&&&&&&&&&&&&OOO#######@@@@@#####@@@@@#####@@@@@########OO&&&&&&&&&&&&&&&&&&&&&&&&&&&&",
"&&&&&&&&&&&&&&&&&&&&&&&&&&&OOO#######@@@@@#####@@@@@#####@@@@@########OO&&&&&&&&&&&&&&&&&&&&&&&&&&&&",
"&&&&&&&&&&&&&&&&&&&&&&&&&&&OOO#######@@@@@#####@@@@@#####@@@@@########OO&&&&&&&&&&&&&&&&&&&&&&&&&&&&",
"&&&&&&&&&&&&&&&&&&&&&&&&&OO##########OOO####################OO##########OOO&&&&&&&&&&&&&&&&&&&&&&&&&",
"&&&&&&&&&&&&&&&&&&&&&&&&&OO##########OOO####################OO##########OOO&&&&&&&&&&&&&&&&&&&&&&&&&",
"&&&&&&&&&&&&&&&&&&&&&&&&&OO########@@OOO####################OO@@@#######OOO&&&&&&&&&&&&&&&&&&&&&&&&&",
"&&&&&&&&&&&&&&&&&&&&&&&&&OO########@@OOO####################OO@@@#######OOO&&&&&&&&&&&&&&&&&&&&&&&&&",
"&&&&&&&&&&&&&&&&&&&&&&&&&OO########@@OOO####################OO@@@#######OOO&&&&&&&&&&&&&&&&&&&&&&&&&",
"&&&&&&&&&&&&&&&&&&&&&&&&&XXOOO@@@@@OO@@@####################@@OOO@@@@@OOXXX&&&&&&&&&&&&&&&&&&&&&&&&&",
"&&&&&&&&&&&&&&&&&&&&&&&&&XXOOO@@@@@OO@@@####################@@OOO@@@@@OOXXX&&&&&&&&&&&&&&&&&&&&&&&&&",
"&&&&&&&&&&&&&&&&&&&&&&&&&&&XXXXXXXXOO@@@#######@@@@@########@@OOOXXXXXXX&&&&&&&&&&&&&&&&&&&&&&&&&&&&",
"&&&&&&&&&&&&&&&&&&&&&&&&&&&XXXXXXXXOO@@@#######@@@@@########@@OOOXXXXXXX&&&&&&&&&&&&&&&&&&&&&&&&&&&&",
"&&&&&&&&&&&&&&&&&&&&&&&&&&&XXXXXXXXOO@@@#######@@@@@########@@OOOXXXXXXX&&&&&&&&&&&&&&&&&&&&&&&&&&&&",
"&&&&&&&&&&&&&&&&&&&&&&&&&&&&&&&&&&&XXOOO#####@@OOOOO@@@#####OOXXX&&&&&&&&&&&&&&&&&&&&&&&&&&&&&&&&&&&",
"&&&&&&&&&&&&&&&&&&&&&&&&&&&&&&&&&&&XXOOO#####@@OOOOO@@@#####OOXXX&&&&&&&&&&&&&&&&&&&&&&&&&&&&&&&&&&&",
"&&&&&&&&&&&&&&&&&&&&&&&&&&&&&&&&&&&&&OOO#####XXOOOOOXXX#####OO&&&&&&&&&&&&&&&&&&&&&&&&&&&&&&&&&&&&&&",
"&&&&&&&&&&&&&&&&&&&&&&&&&&&&&&&&&&&&&OOO#####XXOOOOOXXX#####OO&&&&&&&&&&&&&&&&&&&&&&&&&&&&&&&&&&&&&&",
"&&&&&&&&&&&&&&&&&&&&&&&&&&&&&&&&&&&&&OOO#####XXOOOOOXXX#####OO&&&&&&&&&&&&&&&&&&&&&&&&&&&&&&&&&&&&&&",
"&&&&&&&&&&&&&&&&&&&&&&&&&&&&&&&&&&&&&OOO##@@@XX&&&&&XXX@@###OO&&&&&&&&&&&&&&&&&&&&&&&&&&&&&&&&&&&&&&",
"&&&&&&&&&&&&&&&&&&&&&&&&&&&&&&&&&&&&&OOO##@@@XX&&&&&XXX@@###OO&&&&&&&&&&&&&&&&&&&&&&&&&&&&&&&&&&&&&&",
"&&&&&&&&&&&&&&&&&&&&&&&&&&&&&&&&&&&&&XXX@@@@@XX&&&&&XXX@@@@@XX&&&&&&&&&&&&&&&&&&&&&&&&&&&&&&&&&&&&&&",
"&&&&&&&&&&&&&&&&&&&&&&&&&&&&&&&&&&&&&XXX@@@@@XX&&&&&XXX@@@@@XX&&&&&&&&&&&&&&&&&&&&&&&&&&&&&&&&&&&&&&",
"&&&&&&&&&&&&&&&&&&&&&&&&&&&&&&&&&&&&&XXX@@@@@XX&&&&&XXX@@@@@XX&&&&&&&&&&&&&&&&&&&&&&&&&&&&&&&&&&&&&&",
"&&&&&&&&&&&&&&&&&&&&&&&&&&&&&&&&&&&&&XXXOOOOOXX&&&&&XXXOOOOOXX&&&&&&&&&&&&&&&&&&&&&&&&&&&&&&&&&&&&&&",
"&&&&&&&&&&&&&&&&&&&&&&&&&&&&&&&&&&&&&XXXOOOOOXX&&&&&XXXOOOOOXX&&&&&&&&&&&&&&&&&&&&&&&&&&&&&&&&&&&&&&",
"&&&&&&&&&&&&&&&&&&&&&&&&&&&&&&&&&&&&&&&&XXOOOXX&&&&&XXXOOXXX&&&&&&&&&&&&&&&&&&&&&&&&&&&&&&&&&&&&&&&&",
"&&&&&&&&&&&&&&&&&&&&&&&&&&&&&&&&&&&&&&&&XXOOOXX&&&&&XXXOOXXX&&&&&&&&&&&&&&&&&&&&&&&&&&&&&&&&&&&&&&&&",
"&&&&&&&&&&&&&&&&&&&&&&&&&&&&&&&&&&&&&&&&XXOOOXX&&&&&XXXOOXXX&&&&&&&&&&&&&&&&&&&&&&&&&&&&&&&&&&&&&&&&",
"&&&&&&&&&&&&&&&&&&&&&&&&&&&&&&&&&&&&&&&&XXXXXXX&&&&&XXXXXXXX&&&&&&&&&&&&&&&&&&&&&&&&&&&&&&&&&&&&&&&&",
"&&&&&&&&&&&&&&&&&&&&&&&&&&&&&&&&&&&&&&&&XXXXXXX&&&&&XXXXXXXX&&&&&&&&&&&&&&&&&&&&&&&&&&&&&&&&&&&&&&&&"
};
